<?xml version="1.0" encoding="iso-8859-1"?>
<!-- Generator: Adobe Illustrator 16.0.0, SVG Export Plug-In . SVG Version: 6.00 Build 0)  -->
<!DOCTYPE svg PUBLIC "-//W3C//DTD SVG 1.1//EN" "http://www.w3.org/Graphics/SVG/1.1/DTD/svg11.dtd">
<svg version="1.1" id="Capa_1" xmlns="http://www.w3.org/2000/svg" xmlns:xlink="http://www.w3.org/1999/xlink" x="0px" y="0px"
	 width="46.729px" height="46.729px" viewBox="0 0 46.729 46.729" style="enable-background:new 0 0 46.729 46.729;"
	 xml:space="preserve">
<g>
	<path d="M23.823,14.202l4.742-0.774c1.703,1.126,3.846,1.745,6.057,1.745c5.238,0,9.502-3.403,9.502-7.586
		C44.124,3.403,39.86,0,34.622,0c-5.24,0-9.504,3.403-9.504,7.587c0,1.059,0.271,2.083,0.81,3.054l-2.551,2.727
		c-0.146,0.156-0.177,0.388-0.076,0.577S23.608,14.241,23.823,14.202z M30.493,3.58h8.129c0.553,0,1,0.447,1,1c0,0.553-0.447,1-1,1
		h-8.129c-0.553,0-1.002-0.447-1.002-1C29.491,4.027,29.94,3.58,30.493,3.58z M30.493,6.831h8.129c0.553,0,1,0.448,1,1.001
		c0,0.552-0.447,1-1,1h-8.129c-0.553,0-1.002-0.448-1.002-1C29.491,7.279,29.94,6.831,30.493,6.831z M30.493,10.082h8.129
		c0.553,0,1,0.448,1,1.001c0,0.552-0.447,1-1,1h-8.129c-0.553,0-1.002-0.448-1.002-1C29.491,10.53,29.94,10.082,30.493,10.082z
		 M44.14,44.432c0,1.27-1.026,2.297-2.296,2.297H4.884c-1.268,0-2.296-1.027-2.296-2.297c0-1.027,0.681-1.889,1.612-2.18
		c-0.303-0.375-0.492-0.846-0.492-1.367v-6.23c0-1.216,0.984-2.201,2.2-2.201h0.769c-0.819-0.906-1.325-2.105-1.325-3.429
		c0-2.825,2.292-5.116,5.117-5.116c2.827,0,5.118,2.29,5.118,5.116c0,1.319-0.504,2.521-1.326,3.429h0.734
		c0.824,0,1.537,0.46,1.912,1.133c0.377-0.673,1.088-1.133,1.914-1.133h0.769c-0.82-0.906-1.325-2.105-1.325-3.429
		c0-2.825,2.291-5.116,5.117-5.116s5.116,2.29,5.116,5.116c0,1.319-0.504,2.521-1.325,3.429h0.733c0.826,0,1.537,0.46,1.914,1.133
		c0.377-0.673,1.088-1.133,1.912-1.133h0.771c-0.821-0.906-1.326-2.105-1.326-3.429c0-2.825,2.291-5.116,5.117-5.116
		c2.825,0,5.116,2.29,5.116,5.116c0,1.319-0.504,2.521-1.325,3.429h0.733c1.217,0,2.2,0.985,2.2,2.201v6.23
		c0,0.521-0.188,0.992-0.491,1.367C43.461,42.547,44.14,43.404,44.14,44.432z M2.607,18.414c0-0.829,0.672-1.5,1.5-1.5h1.668h0.82
		v-4.203c0-1.382,1.12-2.5,2.501-2.5H9.97C9.036,9.179,8.463,7.815,8.463,6.315c0-3.211,2.604-5.815,5.815-5.815
		s5.814,2.604,5.814,5.815c0,1.5-0.573,2.863-1.507,3.895h0.833c1.383,0,2.502,1.119,2.502,2.501v4.203h0.86h1.667
		c0.83,0,1.502,0.671,1.502,1.5c0,0.828-0.672,1.501-1.502,1.501h-0.396l-0.32,1.912c-0.117-0.005-0.23-0.024-0.35-0.024
		c-2.82,0-5.268,1.623-6.457,3.985c-1.188-2.362-3.637-3.985-6.456-3.985c-2.077,0-3.946,0.886-5.266,2.292l-0.699-4.182H4.106
		C3.279,19.915,2.607,19.243,2.607,18.414z"/>
</g>
<g>
</g>
<g>
</g>
<g>
</g>
<g>
</g>
<g>
</g>
<g>
</g>
<g>
</g>
<g>
</g>
<g>
</g>
<g>
</g>
<g>
</g>
<g>
</g>
<g>
</g>
<g>
</g>
<g>
</g>
</svg>
