<?xml version="1.0" encoding="iso-8859-1"?>
<!-- Generator: Adobe Illustrator 19.0.0, SVG Export Plug-In . SVG Version: 6.00 Build 0)  -->
<svg version="1.1" id="Capa_1" xmlns="http://www.w3.org/2000/svg" xmlns:xlink="http://www.w3.org/1999/xlink" x="0px" y="0px"
	 viewBox="0 0 485 485" style="enable-background:new 0 0 485 485;" xml:space="preserve">
<path d="M474.679,0H10.321v92.374c0,23.336,9.179,44.567,24.112,60.267V485h416.134V152.641
	c14.933-15.7,24.112-36.931,24.112-60.267V0z M444.679,30v47.374H40.321V30H444.679z M64.433,249.842h98.398V385H64.433V249.842z
	 M192.831,249.842h99.338V455h-99.338V249.842z M322.169,249.842h98.398V385h-98.398V249.842z M64.433,219.842v-46.596
	c10.264,4.247,21.502,6.596,33.281,6.596c30.083,0,56.665-15.293,72.393-38.518c15.728,23.225,42.311,38.518,72.393,38.518
	s56.665-15.293,72.393-38.518c15.728,23.225,42.311,38.518,72.393,38.518c11.778,0,23.017-2.35,33.281-6.596v46.596H64.433z
	 M42.317,107.374h110.794c-6.606,24.436-28.933,42.469-55.397,42.469S48.923,131.809,42.317,107.374z M187.103,107.374h110.794
	c-6.606,24.436-28.933,42.469-55.397,42.469S193.709,131.809,187.103,107.374z M387.286,149.842
	c-26.464,0-48.791-18.033-55.397-42.469h110.794C436.077,131.809,413.75,149.842,387.286,149.842z M64.433,415h98.398v40H64.433V415
	z M322.169,455v-40h98.398v40H322.169z"/>
<g>
</g>
<g>
</g>
<g>
</g>
<g>
</g>
<g>
</g>
<g>
</g>
<g>
</g>
<g>
</g>
<g>
</g>
<g>
</g>
<g>
</g>
<g>
</g>
<g>
</g>
<g>
</g>
<g>
</g>
</svg>
