<?xml version="1.0" encoding="iso-8859-1"?>
<!-- Generator: Adobe Illustrator 19.0.0, SVG Export Plug-In . SVG Version: 6.00 Build 0)  -->
<svg version="1.1" id="Capa_1" xmlns="http://www.w3.org/2000/svg" xmlns:xlink="http://www.w3.org/1999/xlink" x="0px" y="0px"
	 viewBox="0 0 460 460" style="enable-background:new 0 0 460 460;" xml:space="preserve">
<path id="XMLID_245_" d="M350,140v30h-30v-30h-30v-30h30L340,0H120l20,110h30v30h-30v30h-30v-30L0,120v220l110-20v-30h30v30h30v30
	h-30l-20,110h220l-20-110h-30v-30h30v-30h30v30l110,20V120L350,140z M140,260h-30v-60h30V260z M200,110h60v30h-60V110z M260,350h-60
	v-30h60V350z M230,290c-33.137,0-60-26.863-60-60s26.863-60,60-60s60,26.863,60,60S263.137,290,230,290z M350,260h-30v-60h30V260z"
	/>
<g>
</g>
<g>
</g>
<g>
</g>
<g>
</g>
<g>
</g>
<g>
</g>
<g>
</g>
<g>
</g>
<g>
</g>
<g>
</g>
<g>
</g>
<g>
</g>
<g>
</g>
<g>
</g>
<g>
</g>
</svg>
