<?xml version="1.0" encoding="iso-8859-1"?>
<!-- Generator: Adobe Illustrator 19.0.0, SVG Export Plug-In . SVG Version: 6.00 Build 0)  -->
<svg version="1.1" id="Layer_1" xmlns="http://www.w3.org/2000/svg" xmlns:xlink="http://www.w3.org/1999/xlink" x="0px" y="0px"
	 viewBox="0 0 485 485" style="enable-background:new 0 0 485 485;" xml:space="preserve">
<g>
	<path d="M277.743,121.03v198.543h18.598V485h138.641V319.573h18.599V121.03H277.743z M423.58,289.573h-18.599V455h-78.641V289.573
		h-18.598V151.03h42.918v25.312h30V151.03h42.919V289.573z"/>
	<path d="M365.661,100.989c27.843,0,50.494-22.652,50.494-50.494S393.504,0,365.661,0s-50.494,22.652-50.494,50.494
		S337.818,100.989,365.661,100.989z M365.661,30c11.301,0,20.494,9.194,20.494,20.494s-9.193,20.494-20.494,20.494
		s-20.494-9.194-20.494-20.494S354.36,30,365.661,30z"/>
	<path d="M228.686,121.521h-11.132V62.125C217.554,27.869,189.685,0,155.429,0S93.304,27.869,93.304,62.125v59.396H82.171
		l16.092,118.65L31.42,485h248.017l-66.842-244.829L228.686,121.521z M126.64,226.179l-10.126-74.658h77.827l-10.124,74.658H126.64z
		 M123.304,62.125c0-17.714,14.411-32.125,32.125-32.125s32.125,14.411,32.125,32.125v59.396h-64.25V62.125z M240.147,455H70.709
		l54.282-198.821h60.876L240.147,455z"/>
</g>
<g>
</g>
<g>
</g>
<g>
</g>
<g>
</g>
<g>
</g>
<g>
</g>
<g>
</g>
<g>
</g>
<g>
</g>
<g>
</g>
<g>
</g>
<g>
</g>
<g>
</g>
<g>
</g>
<g>
</g>
</svg>
